<svg xmlns="http://www.w3.org/2000/svg" version="1.1" viewBox="0 0 158 181"><path d="M0 0 C9.9 0 19.8 0 30 0 C30 7.59 30 15.18 30 23 C38.91 23 47.82 23 57 23 C57 15.41 57 7.82 57 0 C70.86 0 84.72 0 99 0 C99 7.92 99 15.84 99 24 C108.24 24 117.48 24 127 24 C127 16.08 127 8.16 127 0 C137.23 0 147.46 0 158 0 C158 14.52 158 29.04 158 44 C105.86 44 53.72 44 0 44 C0 29.48 0 14.96 0 0 Z " fill="#CD6231" transform="translate(0.0,0.0)"/>
<path d="M0 0 C20.79 0 41.58 0 63 0 C63 11.88 63 23.76 63 36 C42.21 36 21.42 36 0 36 C0 24.12 0 12.24 0 0 Z " fill="#CC602F" transform="translate(47.0,145.0)"/>
<path d="M0 0 C20.79 0 41.58 0 63 0 C63 11.55 63 23.1 63 35 C42.21 35 21.42 35 0 35 C0 23.45 0 11.9 0 0 Z " fill="#CC5F2D" transform="translate(47.0,54.0)"/>
<path d="M0 0 C19.14 0 38.28 0 58 0 C58.99 5.011875 59.98 10.02375 61 15.1875 C61.31324219 16.76039795 61.62648438 18.3332959 61.94921875 19.95385742 C62.19285156 21.20013916 62.43648437 22.4464209 62.6875 23.73046875 C62.93886719 25.00301514 63.19023438 26.27556152 63.44921875 27.58666992 C64 31 64 31 64 36 C42.88 36 21.76 36 0 36 C0 24.12 0 12.24 0 0 Z " fill="#CC5F2E" transform="translate(84.0,99.0)"/>
<path d="M0 0 C1.01037827 0.00222061 2.02075653 0.00444122 3.06175232 0.00672913 C4.77341331 0.00684242 4.77341331 0.00684242 6.51965332 0.00695801 C7.76129745 0.01211929 9.00294159 0.01728058 10.2822113 0.02259827 C12.17785072 0.02472069 12.17785072 0.02472069 14.11178589 0.02688599 C17.47705394 0.0315487 20.84225495 0.04053972 24.20750427 0.05158997 C27.63930164 0.06180606 31.07110613 0.06643873 34.50291443 0.07142639 C41.2405826 0.08163189 47.97813276 0.10120361 54.71580505 0.12025452 C54.71580505 12.00025452 54.71580505 23.88025452 54.71580505 36.12025452 C33.59580505 36.12025452 12.47580505 36.12025452 -9.28419495 36.12025452 C-8.43556929 28.48262359 -7.24711017 21.14381852 -5.78419495 13.62025452 C-5.55860901 12.42916077 -5.33302307 11.23806702 -5.1006012 10.01087952 C-4.88274963 8.88166077 -4.66489807 7.75244202 -4.44044495 6.58900452 C-4.24257385 5.56226624 -4.04470276 4.53552795 -3.84083557 3.47767639 C-3.05768761 0.16097608 -3.05768761 0.16097608 0 0 Z " fill="#CC5F2D" transform="translate(18.284194946289062,98.87974548339844)"/>
<path d="M0 0 C9.9 0 19.8 0 30 0 C31.39387707 4.18163121 32.46609854 7.8633954 33.2890625 12.1328125 C33.50820313 13.26847656 33.72734375 14.40414062 33.953125 15.57421875 C34.17484375 16.74597656 34.3965625 17.91773438 34.625 19.125 C34.96917969 20.89423828 34.96917969 20.89423828 35.3203125 22.69921875 C37 31.48758371 37 31.48758371 37 36 C24.79 36 12.58 36 0 36 C0 24.12 0 12.24 0 0 Z " fill="#CE6333" transform="translate(120.0,145.0)"/>
<path d="M0 0 C9.9 0 19.8 0 30 0 C30 11.88 30 23.76 30 36 C18.12 36 6.24 36 -6 36 C-5.40084476 30.6076028 -4.80490832 25.50297493 -3.80859375 20.21484375 C-3.60806396 19.14097412 -3.40753418 18.06710449 -3.20092773 16.96069336 C-2.94899658 15.63303955 -2.69706543 14.30538574 -2.4375 12.9375 C-1.633125 8.668125 -0.82875 4.39875 0 0 Z " fill="#CD6130" transform="translate(7.0,145.0)"/>
<path d="M0 0 C7.92 0 15.84 0 24 0 C24 11.55 24 23.1 24 35 C17.73 35 11.46 35 5 35 C5.9220371 24.06727444 5.9220371 24.06727444 7 19 C8.07194008 12.30037448 5.18461764 8.57839156 1.53125 3.2578125 C0 1 0 1 0 0 Z " fill="#CE6434" transform="translate(13.0,54.0)"/>
<path d="M0 0 C7.92 0 15.84 0 24 0 C17.125 10.875 17.125 10.875 16 12 C16.06678043 13.42060192 16.20645332 14.83785218 16.375 16.25 C17.07141697 22.49061957 17.53368797 28.73809557 18 35 C12.06 35 6.12 35 0 35 C0 23.45 0 11.9 0 0 Z " fill="#CD602F" transform="translate(121.0,54.0)"/>
</svg>